<svg xmlns="http://www.w3.org/2000/svg" width="315" height="87" viewBox="0 0 315 87">
  <g id="Group_19" data-name="Group 19" transform="translate(-30 -452)">
    <path id="Path_12" data-name="Path 12" d="M921,788a15,15,0,0,1,15-15V750a5,5,0,0,0-5-5H626a5,5,0,0,0-5,5v23a15,15,0,0,1,0,30v24a5,5,0,0,0,5,5H931a5,5,0,0,0,5-5V803A15,15,0,0,1,921,788Z" transform="translate(-591 -293)" fill="#123c69"/>
    <text id="Get_your_ticket_now" data-name="Get your ticket now" transform="translate(188 502)" fill="#fff" font-size="20" font-family="CeraPro-Bold, Cera Pro" font-weight="700"><tspan x="-94.79" y="0">Get your ticket now</tspan></text>
  </g>
</svg>
